<svg xmlns="http://www.w3.org/2000/svg" width="250" height="4580">
  <rect x="0" y="0" width="250" height="4580" fill="black" />
  <line x1="0" y1="15.0" x2="250" y2="15.0" stroke="white" stroke-width="1" />
  <rect x="5" y="30" width="20" height="20" fill="rgb(32, 32, 32)" />
  <rect x="30" y="30" width="20" height="20" fill="rgb(32, 32, 32)" />
  <text x="55" y="45" font-size="12" font-family="Arial" fill="white">i0/d</text>
  <rect x="5" y="55" width="20" height="20" fill="rgb(32, 32, 32)" />
  <rect x="30" y="55" width="20" height="20" fill="rgb(32, 32, 32)" />
  <text x="55" y="70" font-size="12" font-family="Arial" fill="white">i0/q</text>
  <rect x="5" y="80" width="20" height="20" fill="rgb(32, 32, 32)" />
  <rect x="30" y="80" width="20" height="20" fill="rgb(32, 32, 32)" />
  <text x="55" y="95" font-size="12" font-family="Arial" fill="white">clk</text>
  <line x1="0" y1="115.0" x2="250" y2="115.0" stroke="white" stroke-width="1" />
  <rect x="5" y="130" width="20" height="20" fill="rgb(32, 32, 32)" />
  <rect x="30" y="130" width="20" height="20" fill="rgb(32, 32, 32)" />
  <text x="55" y="145" font-size="12" font-family="Arial" fill="white">i1/a</text>
  <rect x="5" y="155" width="20" height="20" fill="rgb(32, 32, 32)" />
  <rect x="30" y="155" width="20" height="20" fill="rgb(32, 32, 32)" />
  <text x="55" y="170" font-size="12" font-family="Arial" fill="white">i1/x</text>
  <rect x="5" y="180" width="20" height="20" fill="rgb(32, 32, 32)" />
  <rect x="30" y="180" width="20" height="20" fill="rgb(32, 32, 32)" />
  <text x="55" y="195" font-size="12" font-family="Arial" fill="white">i1/temp0</text>
  <rect x="5" y="205" width="20" height="20" fill="rgb(32, 32, 32)" />
  <rect x="30" y="205" width="20" height="20" fill="rgb(32, 32, 32)" />
  <text x="55" y="220" font-size="12" font-family="Arial" fill="white">i25/d</text>
  <line x1="0" y1="240.0" x2="250" y2="240.0" stroke="white" stroke-width="1" />
  <rect x="5" y="255" width="20" height="20" fill="rgb(32, 32, 32)" />
  <rect x="30" y="255" width="20" height="20" fill="rgb(32, 32, 32)" />
  <text x="55" y="270" font-size="12" font-family="Arial" fill="white">i2/a</text>
  <rect x="5" y="280" width="20" height="20" fill="rgb(32, 32, 32)" />
  <rect x="30" y="280" width="20" height="20" fill="rgb(32, 32, 32)" />
  <text x="55" y="295" font-size="12" font-family="Arial" fill="white">i2/temp0</text>
  <rect x="5" y="305" width="20" height="20" fill="rgb(32, 32, 32)" />
  <rect x="30" y="305" width="20" height="20" fill="rgb(32, 32, 32)" />
  <text x="55" y="320" font-size="12" font-family="Arial" fill="white">i2/x</text>
  <rect x="5" y="330" width="20" height="20" fill="rgb(32, 32, 32)" />
  <rect x="30" y="330" width="20" height="20" fill="rgb(32, 32, 32)" />
  <text x="55" y="345" font-size="12" font-family="Arial" fill="white">i25/d</text>
  <line x1="0" y1="365.0" x2="250" y2="365.0" stroke="white" stroke-width="1" />
  <rect x="5" y="380" width="20" height="20" fill="rgb(32, 32, 32)" />
  <rect x="30" y="380" width="20" height="20" fill="rgb(32, 32, 32)" />
  <text x="55" y="395" font-size="12" font-family="Arial" fill="white">i3/s</text>
  <rect x="5" y="405" width="20" height="20" fill="rgb(32, 32, 32)" />
  <rect x="30" y="405" width="20" height="20" fill="rgb(32, 32, 32)" />
  <text x="55" y="420" font-size="12" font-family="Arial" fill="white">i3/x</text>
  <rect x="5" y="430" width="20" height="20" fill="rgb(32, 32, 32)" />
  <rect x="30" y="430" width="20" height="20" fill="rgb(32, 32, 32)" />
  <text x="55" y="445" font-size="12" font-family="Arial" fill="white">i3/temp0</text>
  <rect x="5" y="455" width="20" height="20" fill="rgb(32, 32, 32)" />
  <rect x="30" y="455" width="20" height="20" fill="rgb(32, 32, 32)" />
  <text x="55" y="470" font-size="12" font-family="Arial" fill="white">i3/temp5</text>
  <rect x="5" y="480" width="20" height="20" fill="rgb(32, 32, 32)" />
  <rect x="30" y="480" width="20" height="20" fill="rgb(32, 32, 32)" />
  <text x="55" y="495" font-size="12" font-family="Arial" fill="white">i3/temp2</text>
  <rect x="5" y="505" width="20" height="20" fill="rgb(32, 32, 32)" />
  <rect x="30" y="505" width="20" height="20" fill="rgb(32, 32, 32)" />
  <text x="55" y="520" font-size="12" font-family="Arial" fill="white">i3/temp3</text>
  <rect x="5" y="530" width="20" height="20" fill="rgb(32, 32, 32)" />
  <rect x="30" y="530" width="20" height="20" fill="rgb(32, 32, 32)" />
  <text x="55" y="545" font-size="12" font-family="Arial" fill="white">i3/temp4</text>
  <rect x="5" y="555" width="20" height="20" fill="rgb(32, 32, 32)" />
  <rect x="30" y="555" width="20" height="20" fill="rgb(32, 32, 32)" />
  <text x="55" y="570" font-size="12" font-family="Arial" fill="white">i3/temp1</text>
  <rect x="5" y="580" width="20" height="20" fill="rgb(32, 32, 32)" />
  <rect x="30" y="580" width="20" height="20" fill="rgb(32, 32, 32)" />
  <text x="55" y="595" font-size="12" font-family="Arial" fill="white">i25/d</text>
  <line x1="0" y1="615.0" x2="250" y2="615.0" stroke="white" stroke-width="1" />
  <rect x="5" y="630" width="20" height="20" fill="rgb(32, 32, 32)" />
  <rect x="30" y="630" width="20" height="20" fill="rgb(32, 32, 32)" />
  <text x="55" y="645" font-size="12" font-family="Arial" fill="white">i4/a0</text>
  <rect x="5" y="655" width="20" height="20" fill="rgb(32, 32, 32)" />
  <rect x="30" y="655" width="20" height="20" fill="rgb(32, 32, 32)" />
  <text x="55" y="670" font-size="12" font-family="Arial" fill="white">i4/x</text>
  <rect x="5" y="680" width="20" height="20" fill="rgb(32, 32, 32)" />
  <rect x="30" y="680" width="20" height="20" fill="rgb(32, 32, 32)" />
  <text x="55" y="695" font-size="12" font-family="Arial" fill="white">i4/temp0</text>
  <rect x="5" y="705" width="20" height="20" fill="rgb(32, 32, 32)" />
  <rect x="30" y="705" width="20" height="20" fill="rgb(32, 32, 32)" />
  <text x="55" y="720" font-size="12" font-family="Arial" fill="white">i4/temp1</text>
  <rect x="5" y="730" width="20" height="20" fill="rgb(32, 32, 32)" />
  <rect x="30" y="730" width="20" height="20" fill="rgb(32, 32, 32)" />
  <text x="55" y="745" font-size="12" font-family="Arial" fill="white">i4/temp2</text>
  <rect x="5" y="755" width="20" height="20" fill="rgb(32, 32, 32)" />
  <rect x="30" y="755" width="20" height="20" fill="rgb(32, 32, 32)" />
  <text x="55" y="770" font-size="12" font-family="Arial" fill="white">i4/temp3</text>
  <rect x="5" y="780" width="20" height="20" fill="rgb(32, 32, 32)" />
  <rect x="30" y="780" width="20" height="20" fill="rgb(32, 32, 32)" />
  <text x="55" y="795" font-size="12" font-family="Arial" fill="white">i4/temp4</text>
  <rect x="5" y="805" width="20" height="20" fill="rgb(32, 32, 32)" />
  <rect x="30" y="805" width="20" height="20" fill="rgb(32, 32, 32)" />
  <text x="55" y="820" font-size="12" font-family="Arial" fill="white">i4/temp5</text>
  <rect x="5" y="830" width="20" height="20" fill="rgb(32, 32, 32)" />
  <rect x="30" y="830" width="20" height="20" fill="rgb(32, 32, 32)" />
  <text x="55" y="845" font-size="12" font-family="Arial" fill="white">i25/d</text>
  <line x1="0" y1="865.0" x2="250" y2="865.0" stroke="white" stroke-width="1" />
  <rect x="5" y="880" width="20" height="20" fill="rgb(32, 32, 32)" />
  <rect x="30" y="880" width="20" height="20" fill="rgb(32, 32, 32)" />
  <text x="55" y="895" font-size="12" font-family="Arial" fill="white">i5/b</text>
  <rect x="5" y="905" width="20" height="20" fill="rgb(32, 32, 32)" />
  <rect x="30" y="905" width="20" height="20" fill="rgb(32, 32, 32)" />
  <text x="55" y="920" font-size="12" font-family="Arial" fill="white">i5/x</text>
  <rect x="5" y="930" width="20" height="20" fill="rgb(32, 32, 32)" />
  <rect x="30" y="930" width="20" height="20" fill="rgb(32, 32, 32)" />
  <text x="55" y="945" font-size="12" font-family="Arial" fill="white">i5/temp0</text>
  <rect x="5" y="955" width="20" height="20" fill="rgb(32, 32, 32)" />
  <rect x="30" y="955" width="20" height="20" fill="rgb(32, 32, 32)" />
  <text x="55" y="970" font-size="12" font-family="Arial" fill="white">i5/temp1</text>
  <rect x="5" y="980" width="20" height="20" fill="rgb(32, 32, 32)" />
  <rect x="30" y="980" width="20" height="20" fill="rgb(32, 32, 32)" />
  <text x="55" y="995" font-size="12" font-family="Arial" fill="white">i5/temp2</text>
  <rect x="5" y="1005" width="20" height="20" fill="rgb(32, 32, 32)" />
  <rect x="30" y="1005" width="20" height="20" fill="rgb(32, 32, 32)" />
  <text x="55" y="1020" font-size="12" font-family="Arial" fill="white">i5/temp3</text>
  <rect x="5" y="1030" width="20" height="20" fill="rgb(32, 32, 32)" />
  <rect x="30" y="1030" width="20" height="20" fill="rgb(32, 32, 32)" />
  <text x="55" y="1045" font-size="12" font-family="Arial" fill="white">i25/d</text>
  <line x1="0" y1="1065.0" x2="250" y2="1065.0" stroke="white" stroke-width="1" />
  <rect x="5" y="1080" width="20" height="20" fill="rgb(32, 32, 32)" />
  <rect x="30" y="1080" width="20" height="20" fill="rgb(32, 32, 32)" />
  <text x="55" y="1095" font-size="12" font-family="Arial" fill="white">i6/a2</text>
  <rect x="5" y="1105" width="20" height="20" fill="rgb(32, 32, 32)" />
  <rect x="30" y="1105" width="20" height="20" fill="rgb(32, 32, 32)" />
  <text x="55" y="1120" font-size="12" font-family="Arial" fill="white">i6/x</text>
  <rect x="5" y="1130" width="20" height="20" fill="rgb(32, 32, 32)" />
  <rect x="30" y="1130" width="20" height="20" fill="rgb(32, 32, 32)" />
  <text x="55" y="1145" font-size="12" font-family="Arial" fill="white">i6/temp0</text>
  <rect x="5" y="1155" width="20" height="20" fill="rgb(32, 32, 32)" />
  <rect x="30" y="1155" width="20" height="20" fill="rgb(32, 32, 32)" />
  <text x="55" y="1170" font-size="12" font-family="Arial" fill="white">i6/temp1</text>
  <rect x="5" y="1180" width="20" height="20" fill="rgb(32, 32, 32)" />
  <rect x="30" y="1180" width="20" height="20" fill="rgb(32, 32, 32)" />
  <text x="55" y="1195" font-size="12" font-family="Arial" fill="white">i6/temp2</text>
  <rect x="5" y="1205" width="20" height="20" fill="rgb(32, 32, 32)" />
  <rect x="30" y="1205" width="20" height="20" fill="rgb(32, 32, 32)" />
  <text x="55" y="1220" font-size="12" font-family="Arial" fill="white">i25/d</text>
  <line x1="0" y1="1240.0" x2="250" y2="1240.0" stroke="white" stroke-width="1" />
  <rect x="5" y="1255" width="20" height="20" fill="rgb(32, 32, 32)" />
  <rect x="30" y="1255" width="20" height="20" fill="rgb(32, 32, 32)" />
  <text x="55" y="1270" font-size="12" font-family="Arial" fill="white">i7/a2</text>
  <rect x="5" y="1280" width="20" height="20" fill="rgb(32, 32, 32)" />
  <rect x="30" y="1280" width="20" height="20" fill="rgb(32, 32, 32)" />
  <text x="55" y="1295" font-size="12" font-family="Arial" fill="white">i7/x</text>
  <rect x="5" y="1305" width="20" height="20" fill="rgb(32, 32, 32)" />
  <rect x="30" y="1305" width="20" height="20" fill="rgb(32, 32, 32)" />
  <text x="55" y="1320" font-size="12" font-family="Arial" fill="white">i7/temp0</text>
  <rect x="5" y="1330" width="20" height="20" fill="rgb(32, 32, 32)" />
  <rect x="30" y="1330" width="20" height="20" fill="rgb(32, 32, 32)" />
  <text x="55" y="1345" font-size="12" font-family="Arial" fill="white">i7/temp1</text>
  <rect x="5" y="1355" width="20" height="20" fill="rgb(32, 32, 32)" />
  <rect x="30" y="1355" width="20" height="20" fill="rgb(32, 32, 32)" />
  <text x="55" y="1370" font-size="12" font-family="Arial" fill="white">i7/temp2</text>
  <rect x="5" y="1380" width="20" height="20" fill="rgb(32, 32, 32)" />
  <rect x="30" y="1380" width="20" height="20" fill="rgb(32, 32, 32)" />
  <text x="55" y="1395" font-size="12" font-family="Arial" fill="white">i7/temp3</text>
  <rect x="5" y="1405" width="20" height="20" fill="rgb(32, 32, 32)" />
  <rect x="30" y="1405" width="20" height="20" fill="rgb(32, 32, 32)" />
  <text x="55" y="1420" font-size="12" font-family="Arial" fill="white">i25/d</text>
  <line x1="0" y1="1440.0" x2="250" y2="1440.0" stroke="white" stroke-width="1" />
  <rect x="5" y="1455" width="20" height="20" fill="rgb(32, 32, 32)" />
  <rect x="30" y="1455" width="20" height="20" fill="rgb(32, 32, 32)" />
  <text x="55" y="1470" font-size="12" font-family="Arial" fill="white">i8/a3</text>
  <rect x="5" y="1480" width="20" height="20" fill="rgb(32, 32, 32)" />
  <rect x="30" y="1480" width="20" height="20" fill="rgb(32, 32, 32)" />
  <text x="55" y="1495" font-size="12" font-family="Arial" fill="white">i8/x</text>
  <rect x="5" y="1505" width="20" height="20" fill="rgb(32, 32, 32)" />
  <rect x="30" y="1505" width="20" height="20" fill="rgb(32, 32, 32)" />
  <text x="55" y="1520" font-size="12" font-family="Arial" fill="white">i8/temp0</text>
  <rect x="5" y="1530" width="20" height="20" fill="rgb(32, 32, 32)" />
  <rect x="30" y="1530" width="20" height="20" fill="rgb(32, 32, 32)" />
  <text x="55" y="1545" font-size="12" font-family="Arial" fill="white">i8/temp1</text>
  <rect x="5" y="1555" width="20" height="20" fill="rgb(32, 32, 32)" />
  <rect x="30" y="1555" width="20" height="20" fill="rgb(32, 32, 32)" />
  <text x="55" y="1570" font-size="12" font-family="Arial" fill="white">i8/temp2</text>
  <rect x="5" y="1580" width="20" height="20" fill="rgb(32, 32, 32)" />
  <rect x="30" y="1580" width="20" height="20" fill="rgb(32, 32, 32)" />
  <text x="55" y="1595" font-size="12" font-family="Arial" fill="white">i8/temp3</text>
  <rect x="5" y="1605" width="20" height="20" fill="rgb(32, 32, 32)" />
  <rect x="30" y="1605" width="20" height="20" fill="rgb(32, 32, 32)" />
  <text x="55" y="1620" font-size="12" font-family="Arial" fill="white">i8/temp4</text>
  <rect x="5" y="1630" width="20" height="20" fill="rgb(32, 32, 32)" />
  <rect x="30" y="1630" width="20" height="20" fill="rgb(32, 32, 32)" />
  <text x="55" y="1645" font-size="12" font-family="Arial" fill="white">i25/d</text>
  <line x1="0" y1="1665.0" x2="250" y2="1665.0" stroke="white" stroke-width="1" />
  <rect x="5" y="1680" width="20" height="20" fill="rgb(32, 32, 32)" />
  <rect x="30" y="1680" width="20" height="20" fill="rgb(32, 32, 32)" />
  <text x="55" y="1695" font-size="12" font-family="Arial" fill="white">i9/a2</text>
  <rect x="5" y="1705" width="20" height="20" fill="rgb(32, 32, 32)" />
  <rect x="30" y="1705" width="20" height="20" fill="rgb(32, 32, 32)" />
  <text x="55" y="1720" font-size="12" font-family="Arial" fill="white">i9/y</text>
  <rect x="5" y="1730" width="20" height="20" fill="rgb(32, 32, 32)" />
  <rect x="30" y="1730" width="20" height="20" fill="rgb(32, 32, 32)" />
  <text x="55" y="1745" font-size="12" font-family="Arial" fill="white">i9/temp0</text>
  <rect x="5" y="1755" width="20" height="20" fill="rgb(32, 32, 32)" />
  <rect x="30" y="1755" width="20" height="20" fill="rgb(32, 32, 32)" />
  <text x="55" y="1770" font-size="12" font-family="Arial" fill="white">i9/temp1</text>
  <rect x="5" y="1780" width="20" height="20" fill="rgb(32, 32, 32)" />
  <rect x="30" y="1780" width="20" height="20" fill="rgb(32, 32, 32)" />
  <text x="55" y="1795" font-size="12" font-family="Arial" fill="white">i9/temp2</text>
  <rect x="5" y="1805" width="20" height="20" fill="rgb(32, 32, 32)" />
  <rect x="30" y="1805" width="20" height="20" fill="rgb(32, 32, 32)" />
  <text x="55" y="1820" font-size="12" font-family="Arial" fill="white">i9/temp3</text>
  <rect x="5" y="1830" width="20" height="20" fill="rgb(32, 32, 32)" />
  <rect x="30" y="1830" width="20" height="20" fill="rgb(32, 32, 32)" />
  <text x="55" y="1845" font-size="12" font-family="Arial" fill="white">i25/d</text>
  <line x1="0" y1="1865.0" x2="250" y2="1865.0" stroke="white" stroke-width="1" />
  <rect x="5" y="1880" width="20" height="20" fill="rgb(32, 32, 32)" />
  <rect x="30" y="1880" width="20" height="20" fill="rgb(32, 32, 32)" />
  <text x="55" y="1895" font-size="12" font-family="Arial" fill="white">i10/a</text>
  <rect x="5" y="1905" width="20" height="20" fill="rgb(32, 32, 32)" />
  <rect x="30" y="1905" width="20" height="20" fill="rgb(32, 32, 32)" />
  <text x="55" y="1920" font-size="12" font-family="Arial" fill="white">i10/x</text>
  <rect x="5" y="1930" width="20" height="20" fill="rgb(32, 32, 32)" />
  <rect x="30" y="1930" width="20" height="20" fill="rgb(32, 32, 32)" />
  <text x="55" y="1945" font-size="12" font-family="Arial" fill="white">i10/temp0</text>
  <rect x="5" y="1955" width="20" height="20" fill="rgb(32, 32, 32)" />
  <rect x="30" y="1955" width="20" height="20" fill="rgb(32, 32, 32)" />
  <text x="55" y="1970" font-size="12" font-family="Arial" fill="white">i10/temp2</text>
  <rect x="5" y="1980" width="20" height="20" fill="rgb(32, 32, 32)" />
  <rect x="30" y="1980" width="20" height="20" fill="rgb(32, 32, 32)" />
  <text x="55" y="1995" font-size="12" font-family="Arial" fill="white">i10/temp3</text>
  <rect x="5" y="2005" width="20" height="20" fill="rgb(32, 32, 32)" />
  <rect x="30" y="2005" width="20" height="20" fill="rgb(32, 32, 32)" />
  <text x="55" y="2020" font-size="12" font-family="Arial" fill="white">i10/temp1</text>
  <rect x="5" y="2030" width="20" height="20" fill="rgb(32, 32, 32)" />
  <rect x="30" y="2030" width="20" height="20" fill="rgb(32, 32, 32)" />
  <text x="55" y="2045" font-size="12" font-family="Arial" fill="white">i25/d</text>
  <line x1="0" y1="2065.0" x2="250" y2="2065.0" stroke="white" stroke-width="1" />
  <rect x="5" y="2080" width="20" height="20" fill="rgb(32, 32, 32)" />
  <rect x="30" y="2080" width="20" height="20" fill="rgb(32, 32, 32)" />
  <text x="55" y="2095" font-size="12" font-family="Arial" fill="white">i11/a1</text>
  <rect x="5" y="2105" width="20" height="20" fill="rgb(32, 32, 32)" />
  <rect x="30" y="2105" width="20" height="20" fill="rgb(32, 32, 32)" />
  <text x="55" y="2120" font-size="12" font-family="Arial" fill="white">i11/y</text>
  <rect x="5" y="2130" width="20" height="20" fill="rgb(32, 32, 32)" />
  <rect x="30" y="2130" width="20" height="20" fill="rgb(32, 32, 32)" />
  <text x="55" y="2145" font-size="12" font-family="Arial" fill="white">i11/temp0</text>
  <rect x="5" y="2155" width="20" height="20" fill="rgb(32, 32, 32)" />
  <rect x="30" y="2155" width="20" height="20" fill="rgb(32, 32, 32)" />
  <text x="55" y="2170" font-size="12" font-family="Arial" fill="white">i11/temp1</text>
  <rect x="5" y="2180" width="20" height="20" fill="rgb(32, 32, 32)" />
  <rect x="30" y="2180" width="20" height="20" fill="rgb(32, 32, 32)" />
  <text x="55" y="2195" font-size="12" font-family="Arial" fill="white">i11/temp2</text>
  <rect x="5" y="2205" width="20" height="20" fill="rgb(32, 32, 32)" />
  <rect x="30" y="2205" width="20" height="20" fill="rgb(32, 32, 32)" />
  <text x="55" y="2220" font-size="12" font-family="Arial" fill="white">i25/d</text>
  <line x1="0" y1="2240.0" x2="250" y2="2240.0" stroke="white" stroke-width="1" />
  <rect x="5" y="2255" width="20" height="20" fill="rgb(32, 32, 32)" />
  <rect x="30" y="2255" width="20" height="20" fill="rgb(32, 32, 32)" />
  <text x="55" y="2270" font-size="12" font-family="Arial" fill="white">i12/a1</text>
  <rect x="5" y="2280" width="20" height="20" fill="rgb(32, 32, 32)" />
  <rect x="30" y="2280" width="20" height="20" fill="rgb(32, 32, 32)" />
  <text x="55" y="2295" font-size="12" font-family="Arial" fill="white">i12/x</text>
  <rect x="5" y="2305" width="20" height="20" fill="rgb(32, 32, 32)" />
  <rect x="30" y="2305" width="20" height="20" fill="rgb(32, 32, 32)" />
  <text x="55" y="2320" font-size="12" font-family="Arial" fill="white">i12/temp0</text>
  <rect x="5" y="2330" width="20" height="20" fill="rgb(32, 32, 32)" />
  <rect x="30" y="2330" width="20" height="20" fill="rgb(32, 32, 32)" />
  <text x="55" y="2345" font-size="12" font-family="Arial" fill="white">i12/temp1</text>
  <rect x="5" y="2355" width="20" height="20" fill="rgb(32, 32, 32)" />
  <rect x="30" y="2355" width="20" height="20" fill="rgb(32, 32, 32)" />
  <text x="55" y="2370" font-size="12" font-family="Arial" fill="white">i12/temp2</text>
  <rect x="5" y="2380" width="20" height="20" fill="rgb(32, 32, 32)" />
  <rect x="30" y="2380" width="20" height="20" fill="rgb(32, 32, 32)" />
  <text x="55" y="2395" font-size="12" font-family="Arial" fill="white">i12/temp3</text>
  <rect x="5" y="2405" width="20" height="20" fill="rgb(32, 32, 32)" />
  <rect x="30" y="2405" width="20" height="20" fill="rgb(32, 32, 32)" />
  <text x="55" y="2420" font-size="12" font-family="Arial" fill="white">i25/d</text>
  <line x1="0" y1="2440.0" x2="250" y2="2440.0" stroke="white" stroke-width="1" />
  <rect x="5" y="2455" width="20" height="20" fill="rgb(32, 32, 32)" />
  <rect x="30" y="2455" width="20" height="20" fill="rgb(32, 32, 32)" />
  <text x="55" y="2470" font-size="12" font-family="Arial" fill="white">i13/a1</text>
  <rect x="5" y="2480" width="20" height="20" fill="rgb(32, 32, 32)" />
  <rect x="30" y="2480" width="20" height="20" fill="rgb(32, 32, 32)" />
  <text x="55" y="2495" font-size="12" font-family="Arial" fill="white">i13/x</text>
  <rect x="5" y="2505" width="20" height="20" fill="rgb(32, 32, 32)" />
  <rect x="30" y="2505" width="20" height="20" fill="rgb(32, 32, 32)" />
  <text x="55" y="2520" font-size="12" font-family="Arial" fill="white">i13/temp0</text>
  <rect x="5" y="2530" width="20" height="20" fill="rgb(32, 32, 32)" />
  <rect x="30" y="2530" width="20" height="20" fill="rgb(32, 32, 32)" />
  <text x="55" y="2545" font-size="12" font-family="Arial" fill="white">i13/temp1</text>
  <rect x="5" y="2555" width="20" height="20" fill="rgb(32, 32, 32)" />
  <rect x="30" y="2555" width="20" height="20" fill="rgb(32, 32, 32)" />
  <text x="55" y="2570" font-size="12" font-family="Arial" fill="white">i13/temp2</text>
  <rect x="5" y="2580" width="20" height="20" fill="rgb(32, 32, 32)" />
  <rect x="30" y="2580" width="20" height="20" fill="rgb(32, 32, 32)" />
  <text x="55" y="2595" font-size="12" font-family="Arial" fill="white">i13/temp3</text>
  <rect x="5" y="2605" width="20" height="20" fill="rgb(32, 32, 32)" />
  <rect x="30" y="2605" width="20" height="20" fill="rgb(32, 32, 32)" />
  <text x="55" y="2620" font-size="12" font-family="Arial" fill="white">i13/temp4</text>
  <rect x="5" y="2630" width="20" height="20" fill="rgb(32, 32, 32)" />
  <rect x="30" y="2630" width="20" height="20" fill="rgb(32, 32, 32)" />
  <text x="55" y="2645" font-size="12" font-family="Arial" fill="white">i25/d</text>
  <line x1="0" y1="2665.0" x2="250" y2="2665.0" stroke="white" stroke-width="1" />
  <rect x="5" y="2680" width="20" height="20" fill="rgb(32, 32, 32)" />
  <rect x="30" y="2680" width="20" height="20" fill="rgb(32, 32, 32)" />
  <text x="55" y="2695" font-size="12" font-family="Arial" fill="white">i14/a1</text>
  <rect x="5" y="2705" width="20" height="20" fill="rgb(32, 32, 32)" />
  <rect x="30" y="2705" width="20" height="20" fill="rgb(32, 32, 32)" />
  <text x="55" y="2720" font-size="12" font-family="Arial" fill="white">i14/y</text>
  <rect x="5" y="2730" width="20" height="20" fill="rgb(32, 32, 32)" />
  <rect x="30" y="2730" width="20" height="20" fill="rgb(32, 32, 32)" />
  <text x="55" y="2745" font-size="12" font-family="Arial" fill="white">i14/temp0</text>
  <rect x="5" y="2755" width="20" height="20" fill="rgb(32, 32, 32)" />
  <rect x="30" y="2755" width="20" height="20" fill="rgb(32, 32, 32)" />
  <text x="55" y="2770" font-size="12" font-family="Arial" fill="white">i14/temp1</text>
  <rect x="5" y="2780" width="20" height="20" fill="rgb(32, 32, 32)" />
  <rect x="30" y="2780" width="20" height="20" fill="rgb(32, 32, 32)" />
  <text x="55" y="2795" font-size="12" font-family="Arial" fill="white">i14/temp2</text>
  <rect x="5" y="2805" width="20" height="20" fill="rgb(32, 32, 32)" />
  <rect x="30" y="2805" width="20" height="20" fill="rgb(32, 32, 32)" />
  <text x="55" y="2820" font-size="12" font-family="Arial" fill="white">i25/d</text>
  <line x1="0" y1="2840.0" x2="250" y2="2840.0" stroke="white" stroke-width="1" />
  <rect x="5" y="2855" width="20" height="20" fill="rgb(32, 32, 32)" />
  <rect x="30" y="2855" width="20" height="20" fill="rgb(32, 32, 32)" />
  <text x="55" y="2870" font-size="12" font-family="Arial" fill="white">i15/a_n</text>
  <rect x="5" y="2880" width="20" height="20" fill="rgb(32, 32, 32)" />
  <rect x="30" y="2880" width="20" height="20" fill="rgb(32, 32, 32)" />
  <text x="55" y="2895" font-size="12" font-family="Arial" fill="white">i15/y</text>
  <rect x="5" y="2905" width="20" height="20" fill="rgb(32, 32, 32)" />
  <rect x="30" y="2905" width="20" height="20" fill="rgb(32, 32, 32)" />
  <text x="55" y="2920" font-size="12" font-family="Arial" fill="white">i15/temp0</text>
  <rect x="5" y="2930" width="20" height="20" fill="rgb(32, 32, 32)" />
  <rect x="30" y="2930" width="20" height="20" fill="rgb(32, 32, 32)" />
  <text x="55" y="2945" font-size="12" font-family="Arial" fill="white">i15/temp1</text>
  <rect x="5" y="2955" width="20" height="20" fill="rgb(32, 32, 32)" />
  <rect x="30" y="2955" width="20" height="20" fill="rgb(32, 32, 32)" />
  <text x="55" y="2970" font-size="12" font-family="Arial" fill="white">i25/d</text>
  <line x1="0" y1="2990.0" x2="250" y2="2990.0" stroke="white" stroke-width="1" />
  <rect x="5" y="3005" width="20" height="20" fill="rgb(32, 32, 32)" />
  <rect x="30" y="3005" width="20" height="20" fill="rgb(32, 32, 32)" />
  <text x="55" y="3020" font-size="12" font-family="Arial" fill="white">i16/a</text>
  <rect x="5" y="3030" width="20" height="20" fill="rgb(32, 32, 32)" />
  <rect x="30" y="3030" width="20" height="20" fill="rgb(32, 32, 32)" />
  <text x="55" y="3045" font-size="12" font-family="Arial" fill="white">i16/y</text>
  <rect x="5" y="3055" width="20" height="20" fill="rgb(32, 32, 32)" />
  <rect x="30" y="3055" width="20" height="20" fill="rgb(32, 32, 32)" />
  <text x="55" y="3070" font-size="12" font-family="Arial" fill="white">i16/temp0</text>
  <rect x="5" y="3080" width="20" height="20" fill="rgb(32, 32, 32)" />
  <rect x="30" y="3080" width="20" height="20" fill="rgb(32, 32, 32)" />
  <text x="55" y="3095" font-size="12" font-family="Arial" fill="white">i25/d</text>
  <line x1="0" y1="3115.0" x2="250" y2="3115.0" stroke="white" stroke-width="1" />
  <rect x="5" y="3130" width="20" height="20" fill="rgb(32, 32, 32)" />
  <rect x="30" y="3130" width="20" height="20" fill="rgb(32, 32, 32)" />
  <text x="55" y="3145" font-size="12" font-family="Arial" fill="white">i17/a2</text>
  <rect x="5" y="3155" width="20" height="20" fill="rgb(32, 32, 32)" />
  <rect x="30" y="3155" width="20" height="20" fill="rgb(32, 32, 32)" />
  <text x="55" y="3170" font-size="12" font-family="Arial" fill="white">i17/x</text>
  <rect x="5" y="3180" width="20" height="20" fill="rgb(32, 32, 32)" />
  <rect x="30" y="3180" width="20" height="20" fill="rgb(32, 32, 32)" />
  <text x="55" y="3195" font-size="12" font-family="Arial" fill="white">i17/temp0</text>
  <rect x="5" y="3205" width="20" height="20" fill="rgb(32, 32, 32)" />
  <rect x="30" y="3205" width="20" height="20" fill="rgb(32, 32, 32)" />
  <text x="55" y="3220" font-size="12" font-family="Arial" fill="white">i17/temp1</text>
  <rect x="5" y="3230" width="20" height="20" fill="rgb(32, 32, 32)" />
  <rect x="30" y="3230" width="20" height="20" fill="rgb(32, 32, 32)" />
  <text x="55" y="3245" font-size="12" font-family="Arial" fill="white">i17/temp2</text>
  <rect x="5" y="3255" width="20" height="20" fill="rgb(32, 32, 32)" />
  <rect x="30" y="3255" width="20" height="20" fill="rgb(32, 32, 32)" />
  <text x="55" y="3270" font-size="12" font-family="Arial" fill="white">i17/temp3</text>
  <rect x="5" y="3280" width="20" height="20" fill="rgb(32, 32, 32)" />
  <rect x="30" y="3280" width="20" height="20" fill="rgb(32, 32, 32)" />
  <text x="55" y="3295" font-size="12" font-family="Arial" fill="white">i17/temp4</text>
  <rect x="5" y="3305" width="20" height="20" fill="rgb(32, 32, 32)" />
  <rect x="30" y="3305" width="20" height="20" fill="rgb(32, 32, 32)" />
  <text x="55" y="3320" font-size="12" font-family="Arial" fill="white">i25/d</text>
  <line x1="0" y1="3340.0" x2="250" y2="3340.0" stroke="white" stroke-width="1" />
  <rect x="5" y="3355" width="20" height="20" fill="rgb(32, 32, 32)" />
  <rect x="30" y="3355" width="20" height="20" fill="rgb(32, 32, 32)" />
  <text x="55" y="3370" font-size="12" font-family="Arial" fill="white">i18/a1</text>
  <rect x="5" y="3380" width="20" height="20" fill="rgb(32, 32, 32)" />
  <rect x="30" y="3380" width="20" height="20" fill="rgb(32, 32, 32)" />
  <text x="55" y="3395" font-size="12" font-family="Arial" fill="white">i18/x</text>
  <rect x="5" y="3405" width="20" height="20" fill="rgb(32, 32, 32)" />
  <rect x="30" y="3405" width="20" height="20" fill="rgb(32, 32, 32)" />
  <text x="55" y="3420" font-size="12" font-family="Arial" fill="white">i18/temp0</text>
  <rect x="5" y="3430" width="20" height="20" fill="rgb(32, 32, 32)" />
  <rect x="30" y="3430" width="20" height="20" fill="rgb(32, 32, 32)" />
  <text x="55" y="3445" font-size="12" font-family="Arial" fill="white">i18/temp1</text>
  <rect x="5" y="3455" width="20" height="20" fill="rgb(32, 32, 32)" />
  <rect x="30" y="3455" width="20" height="20" fill="rgb(32, 32, 32)" />
  <text x="55" y="3470" font-size="12" font-family="Arial" fill="white">i18/temp2</text>
  <rect x="5" y="3480" width="20" height="20" fill="rgb(32, 32, 32)" />
  <rect x="30" y="3480" width="20" height="20" fill="rgb(32, 32, 32)" />
  <text x="55" y="3495" font-size="12" font-family="Arial" fill="white">i25/d</text>
  <line x1="0" y1="3515.0" x2="250" y2="3515.0" stroke="white" stroke-width="1" />
  <rect x="5" y="3530" width="20" height="20" fill="rgb(32, 32, 32)" />
  <rect x="30" y="3530" width="20" height="20" fill="rgb(32, 32, 32)" />
  <text x="55" y="3545" font-size="12" font-family="Arial" fill="white">i19/b1</text>
  <rect x="5" y="3555" width="20" height="20" fill="rgb(32, 32, 32)" />
  <rect x="30" y="3555" width="20" height="20" fill="rgb(32, 32, 32)" />
  <text x="55" y="3570" font-size="12" font-family="Arial" fill="white">i19/x</text>
  <rect x="5" y="3580" width="20" height="20" fill="rgb(32, 32, 32)" />
  <rect x="30" y="3580" width="20" height="20" fill="rgb(32, 32, 32)" />
  <text x="55" y="3595" font-size="12" font-family="Arial" fill="white">i19/temp0</text>
  <rect x="5" y="3605" width="20" height="20" fill="rgb(32, 32, 32)" />
  <rect x="30" y="3605" width="20" height="20" fill="rgb(32, 32, 32)" />
  <text x="55" y="3620" font-size="12" font-family="Arial" fill="white">i19/temp1</text>
  <rect x="5" y="3630" width="20" height="20" fill="rgb(32, 32, 32)" />
  <rect x="30" y="3630" width="20" height="20" fill="rgb(32, 32, 32)" />
  <text x="55" y="3645" font-size="12" font-family="Arial" fill="white">i19/temp2</text>
  <rect x="5" y="3655" width="20" height="20" fill="rgb(32, 32, 32)" />
  <rect x="30" y="3655" width="20" height="20" fill="rgb(32, 32, 32)" />
  <text x="55" y="3670" font-size="12" font-family="Arial" fill="white">i25/d</text>
  <line x1="0" y1="3690.0" x2="250" y2="3690.0" stroke="white" stroke-width="1" />
  <rect x="5" y="3705" width="20" height="20" fill="rgb(32, 32, 32)" />
  <rect x="30" y="3705" width="20" height="20" fill="rgb(32, 32, 32)" />
  <text x="55" y="3720" font-size="12" font-family="Arial" fill="white">i20/b1</text>
  <rect x="5" y="3730" width="20" height="20" fill="rgb(32, 32, 32)" />
  <rect x="30" y="3730" width="20" height="20" fill="rgb(32, 32, 32)" />
  <text x="55" y="3745" font-size="12" font-family="Arial" fill="white">i20/y</text>
  <rect x="5" y="3755" width="20" height="20" fill="rgb(32, 32, 32)" />
  <rect x="30" y="3755" width="20" height="20" fill="rgb(32, 32, 32)" />
  <text x="55" y="3770" font-size="12" font-family="Arial" fill="white">i20/temp0</text>
  <rect x="5" y="3780" width="20" height="20" fill="rgb(32, 32, 32)" />
  <rect x="30" y="3780" width="20" height="20" fill="rgb(32, 32, 32)" />
  <text x="55" y="3795" font-size="12" font-family="Arial" fill="white">i20/temp1</text>
  <rect x="5" y="3805" width="20" height="20" fill="rgb(32, 32, 32)" />
  <rect x="30" y="3805" width="20" height="20" fill="rgb(32, 32, 32)" />
  <text x="55" y="3820" font-size="12" font-family="Arial" fill="white">i25/d</text>
  <line x1="0" y1="3840.0" x2="250" y2="3840.0" stroke="white" stroke-width="1" />
  <rect x="5" y="3855" width="20" height="20" fill="rgb(32, 32, 32)" />
  <rect x="30" y="3855" width="20" height="20" fill="rgb(32, 32, 32)" />
  <text x="55" y="3870" font-size="12" font-family="Arial" fill="white">i21/a</text>
  <rect x="5" y="3880" width="20" height="20" fill="rgb(32, 32, 32)" />
  <rect x="30" y="3880" width="20" height="20" fill="rgb(32, 32, 32)" />
  <text x="55" y="3895" font-size="12" font-family="Arial" fill="white">i21/y</text>
  <rect x="5" y="3905" width="20" height="20" fill="rgb(32, 32, 32)" />
  <rect x="30" y="3905" width="20" height="20" fill="rgb(32, 32, 32)" />
  <text x="55" y="3920" font-size="12" font-family="Arial" fill="white">i21/temp0</text>
  <rect x="5" y="3930" width="20" height="20" fill="rgb(32, 32, 32)" />
  <rect x="30" y="3930" width="20" height="20" fill="rgb(32, 32, 32)" />
  <text x="55" y="3945" font-size="12" font-family="Arial" fill="white">i21/temp2</text>
  <rect x="5" y="3955" width="20" height="20" fill="rgb(32, 32, 32)" />
  <rect x="30" y="3955" width="20" height="20" fill="rgb(32, 32, 32)" />
  <text x="55" y="3970" font-size="12" font-family="Arial" fill="white">i21/temp3</text>
  <rect x="5" y="3980" width="20" height="20" fill="rgb(32, 32, 32)" />
  <rect x="30" y="3980" width="20" height="20" fill="rgb(32, 32, 32)" />
  <text x="55" y="3995" font-size="12" font-family="Arial" fill="white">i25/d</text>
  <line x1="0" y1="4015.0" x2="250" y2="4015.0" stroke="white" stroke-width="1" />
  <rect x="5" y="4030" width="20" height="20" fill="rgb(32, 32, 32)" />
  <rect x="30" y="4030" width="20" height="20" fill="rgb(32, 32, 32)" />
  <text x="55" y="4045" font-size="12" font-family="Arial" fill="white">i22/b1</text>
  <rect x="5" y="4055" width="20" height="20" fill="rgb(32, 32, 32)" />
  <rect x="30" y="4055" width="20" height="20" fill="rgb(32, 32, 32)" />
  <text x="55" y="4070" font-size="12" font-family="Arial" fill="white">i22/x</text>
  <rect x="5" y="4080" width="20" height="20" fill="rgb(32, 32, 32)" />
  <rect x="30" y="4080" width="20" height="20" fill="rgb(32, 32, 32)" />
  <text x="55" y="4095" font-size="12" font-family="Arial" fill="white">i22/temp0</text>
  <rect x="5" y="4105" width="20" height="20" fill="rgb(32, 32, 32)" />
  <rect x="30" y="4105" width="20" height="20" fill="rgb(32, 32, 32)" />
  <text x="55" y="4120" font-size="12" font-family="Arial" fill="white">i22/temp1</text>
  <rect x="5" y="4130" width="20" height="20" fill="rgb(32, 32, 32)" />
  <rect x="30" y="4130" width="20" height="20" fill="rgb(32, 32, 32)" />
  <text x="55" y="4145" font-size="12" font-family="Arial" fill="white">i22/temp2</text>
  <rect x="5" y="4155" width="20" height="20" fill="rgb(32, 32, 32)" />
  <rect x="30" y="4155" width="20" height="20" fill="rgb(32, 32, 32)" />
  <text x="55" y="4170" font-size="12" font-family="Arial" fill="white">i22/temp3</text>
  <rect x="5" y="4180" width="20" height="20" fill="rgb(32, 32, 32)" />
  <rect x="30" y="4180" width="20" height="20" fill="rgb(32, 32, 32)" />
  <text x="55" y="4195" font-size="12" font-family="Arial" fill="white">i25/d</text>
  <line x1="0" y1="4215.0" x2="250" y2="4215.0" stroke="white" stroke-width="1" />
  <rect x="5" y="4230" width="20" height="20" fill="rgb(32, 32, 32)" />
  <rect x="30" y="4230" width="20" height="20" fill="rgb(32, 32, 32)" />
  <text x="55" y="4245" font-size="12" font-family="Arial" fill="white">i23/a2</text>
  <rect x="5" y="4255" width="20" height="20" fill="rgb(32, 32, 32)" />
  <rect x="30" y="4255" width="20" height="20" fill="rgb(32, 32, 32)" />
  <text x="55" y="4270" font-size="12" font-family="Arial" fill="white">i23/x</text>
  <rect x="5" y="4280" width="20" height="20" fill="rgb(32, 32, 32)" />
  <rect x="30" y="4280" width="20" height="20" fill="rgb(32, 32, 32)" />
  <text x="55" y="4295" font-size="12" font-family="Arial" fill="white">i23/temp0</text>
  <rect x="5" y="4305" width="20" height="20" fill="rgb(32, 32, 32)" />
  <rect x="30" y="4305" width="20" height="20" fill="rgb(32, 32, 32)" />
  <text x="55" y="4320" font-size="12" font-family="Arial" fill="white">i23/temp1</text>
  <rect x="5" y="4330" width="20" height="20" fill="rgb(32, 32, 32)" />
  <rect x="30" y="4330" width="20" height="20" fill="rgb(32, 32, 32)" />
  <text x="55" y="4345" font-size="12" font-family="Arial" fill="white">i23/temp2</text>
  <rect x="5" y="4355" width="20" height="20" fill="rgb(32, 32, 32)" />
  <rect x="30" y="4355" width="20" height="20" fill="rgb(32, 32, 32)" />
  <text x="55" y="4370" font-size="12" font-family="Arial" fill="white">i25/d</text>
  <line x1="0" y1="4390.0" x2="250" y2="4390.0" stroke="white" stroke-width="1" />
  <rect x="5" y="4405" width="20" height="20" fill="rgb(32, 32, 32)" />
  <rect x="30" y="4405" width="20" height="20" fill="rgb(32, 32, 32)" />
  <text x="55" y="4420" font-size="12" font-family="Arial" fill="white">i24/b</text>
  <rect x="5" y="4430" width="20" height="20" fill="rgb(32, 32, 32)" />
  <rect x="30" y="4430" width="20" height="20" fill="rgb(32, 32, 32)" />
  <text x="55" y="4445" font-size="12" font-family="Arial" fill="white">i24/x</text>
  <rect x="5" y="4455" width="20" height="20" fill="rgb(32, 32, 32)" />
  <rect x="30" y="4455" width="20" height="20" fill="rgb(32, 32, 32)" />
  <text x="55" y="4470" font-size="12" font-family="Arial" fill="white">i24/temp0</text>
  <rect x="5" y="4480" width="20" height="20" fill="rgb(32, 32, 32)" />
  <rect x="30" y="4480" width="20" height="20" fill="rgb(32, 32, 32)" />
  <text x="55" y="4495" font-size="12" font-family="Arial" fill="white">i24/temp1</text>
  <rect x="5" y="4505" width="20" height="20" fill="rgb(32, 32, 32)" />
  <rect x="30" y="4505" width="20" height="20" fill="rgb(32, 32, 32)" />
  <text x="55" y="4520" font-size="12" font-family="Arial" fill="white">i25/d</text>
  <line x1="0" y1="4540.0" x2="250" y2="4540.0" stroke="white" stroke-width="1" />
  <rect x="5" y="4555" width="20" height="20" fill="rgb(32, 32, 32)" />
  <rect x="30" y="4555" width="20" height="20" fill="rgb(32, 32, 32)" />
  <text x="55" y="4570" font-size="12" font-family="Arial" fill="white">i25/d</text>
</svg>